<svg version="1.1" id="Layer_1" xmlns="http://www.w3.org/2000/svg" xmlns:xlink="http://www.w3.org/1999/xlink" x="0px" y="0px"
	 width="50" viewBox="0 0 1024 1024" enable-background="new 0 0 1024 1024" xml:space="preserve">
<path fill="#b0a15d" opacity="1.000000" stroke="none" 
	d="
M506.632202,515.375854 
	C516.327515,527.945312 527.309021,538.453918 541.534668,545.163086 
	C553.492554,550.802673 565.176636,549.103088 574.613708,539.881042 
	C591.148315,523.723083 596.549866,503.373505 595.432983,481.059998 
	C594.458130,461.584015 591.552307,442.338074 585.787170,423.613495 
	C582.944519,414.380859 578.244934,405.827881 575.861572,396.438446 
	C571.967896,381.098419 567.810425,365.755310 571.681396,349.732269 
	C574.440125,338.313232 579.657776,328.242462 588.315918,320.103699 
	C596.084045,312.801575 604.820801,310.502533 614.958435,314.592255 
	C616.583252,315.247742 618.230591,316.287537 620.744568,315.588593 
	C619.698975,311.453796 618.658997,307.340759 617.618652,303.227753 
	C615.451599,294.660370 618.602356,288.102081 625.846619,286.101715 
	C632.547058,284.251526 639.120361,288.585541 641.277588,296.695160 
	C648.537292,323.986359 658.342896,350.292053 671.397644,375.353027 
	C676.171021,384.516541 681.028748,393.649719 687.705627,401.628845 
	C689.366211,403.613342 690.930298,406.431274 694.087341,405.544830 
	C697.195496,404.672058 697.933350,401.606171 698.585266,398.831818 
	C701.094116,388.153656 698.883362,377.621429 697.320251,367.114838 
	C695.039856,351.787170 691.475891,336.713440 686.915710,321.918640 
	C683.083252,309.485107 676.674622,298.078552 671.725037,286.076477 
	C657.562805,251.734726 643.971863,217.189514 632.859680,181.716095 
	C632.511230,180.603821 632.118591,179.495819 631.890564,178.356979 
	C630.512939,171.475906 633.457092,165.681107 639.256348,163.772446 
	C645.999695,161.553040 652.556580,164.339966 655.143005,171.181564 
	C657.846558,178.333084 659.938110,185.717300 662.259094,193.011887 
	C674.072266,230.138397 686.589050,267.021057 700.502258,303.419647 
	C701.022522,304.780731 701.763306,306.057587 702.957092,308.520264 
	C704.289368,299.461121 705.603149,291.638885 706.558350,283.773132 
	C708.000854,271.894379 709.861511,260.075043 711.076843,248.157776 
	C712.015381,238.954193 711.013245,230.256027 707.737366,221.710022 
	C706.249939,217.829697 705.915710,213.862000 707.744751,210.055038 
	C709.871704,205.627914 713.730469,203.213058 718.492920,202.982956 
	C723.177063,202.756607 726.672852,205.151855 728.987000,209.356735 
	C734.348694,219.098801 733.984375,229.548157 732.809875,240.046753 
	C731.636658,250.534393 728.176392,260.468262 724.892395,270.429718 
	C723.807800,273.719482 722.785339,277.029694 721.383057,281.434418 
	C730.809509,276.262756 735.937866,280.797882 740.770935,287.597290 
	C748.877808,299.002563 758.543396,308.803955 772.004089,313.976227 
	C782.307251,317.935150 786.995972,315.349365 789.063232,304.588593 
	C790.792114,295.588593 788.156494,287.005951 786.013489,278.525635 
	C782.182129,263.363922 778.045410,248.255783 773.317932,233.353165 
	C770.562317,224.666718 765.584045,216.755493 763.165710,207.868118 
	C758.334167,190.111938 756.145081,172.285095 761.867432,154.273102 
	C763.652954,148.653015 766.455505,143.549561 770.050171,138.907089 
	C782.491821,122.839317 802.226074,120.524849 818.568298,133.325760 
	C833.519043,145.036789 839.412048,160.604675 838.511536,179.392807 
	C837.649841,197.370300 830.680786,212.488586 819.068359,225.875046 
	C815.806580,229.635132 813.106812,233.883270 810.156494,237.912872 
	C809.121460,239.326569 808.385742,240.752518 809.734802,242.427017 
	C815.597046,249.703445 822.203918,255.845581 831.858582,257.645966 
	C842.786560,259.683777 849.424255,253.463272 855.257202,245.652908 
	C865.597473,231.807083 869.733154,215.897125 870.683044,198.949860 
	C870.813416,196.623276 870.667908,194.282318 870.759216,191.952286 
	C871.068176,184.070511 870.065186,176.933197 865.644592,169.700485 
	C858.354736,157.773392 858.400024,144.356827 861.970825,130.988266 
	C862.716431,128.196899 864.568665,126.005836 866.151306,123.654976 
	C865.276245,121.340729 863.068848,120.629601 861.382263,119.397659 
	C840.259460,103.968246 835.146790,70.098755 851.048645,50.720650 
	C859.108337,40.898930 871.385193,37.247017 881.288940,41.725140 
	C896.603516,48.649837 902.019775,68.991005 892.133667,82.437309 
	C890.130798,85.161423 887.594910,86.731255 884.071106,86.550140 
	C880.362915,86.359566 877.765686,84.663490 876.296936,81.262459 
	C874.929565,78.096283 876.585632,75.898071 878.618347,73.719627 
	C884.386475,67.537704 885.201355,62.616444 881.452698,57.345863 
	C876.415283,50.263443 865.139343,49.159523 858.870361,55.135082 
	C846.411987,67.010338 849.657227,94.211288 864.604492,102.560768 
	C872.106934,106.751610 880.541992,105.977776 888.100586,104.285156 
	C917.215271,97.765373 940.167053,121.522346 944.430847,145.440598 
	C948.947388,170.777466 933.602051,191.868469 908.053467,194.654587 
	C900.617188,195.465546 893.507690,193.605896 886.761780,190.427597 
	C884.966736,189.581863 883.187378,188.702744 880.982971,187.636917 
	C878.976990,195.151535 879.490051,202.664429 878.347656,209.959824 
	C876.005798,224.914520 872.145874,239.348938 863.498474,251.975388 
	C855.415405,263.777832 844.799622,272.077515 829.727112,272.005676 
	C818.447510,271.951874 808.190308,268.051880 798.937988,261.613098 
	C796.363647,259.821594 793.890442,257.884766 790.610962,255.450562 
	C792.782104,264.190552 794.952148,272.090057 796.668396,280.086884 
	C798.167542,287.072449 799.312317,294.137115 799.327576,301.343079 
	C799.369629,321.230255 786.825195,331.148987 767.207581,326.833099 
	C752.692200,323.639679 740.399719,316.129974 728.673950,307.462616 
	C724.938599,304.701477 721.325439,301.775024 717.108215,298.498322 
	C714.319031,304.231537 714.250488,310.358032 713.347900,316.267151 
	C712.971924,318.728516 712.788452,321.219849 712.535645,323.699371 
	C712.075012,328.215759 712.327454,332.482208 714.402588,336.795990 
	C719.608093,347.617188 724.833313,358.386993 731.936951,368.142700 
	C733.296509,370.009766 734.216064,372.198761 735.323730,374.247284 
	C736.875977,377.117859 735.965393,379.389343 733.522400,381.203522 
	C731.040710,383.046387 728.750977,382.280670 726.790161,380.355469 
	C720.828857,374.502502 715.656921,367.974060 710.718445,361.254333 
	C709.088257,359.036224 707.454895,356.820526 705.062012,353.569977 
	C706.926086,363.854340 707.970276,372.902344 708.742371,381.999695 
	C709.400208,389.750946 708.716614,397.326416 706.734924,404.737244 
	C704.209778,414.180084 697.692627,417.902649 688.080505,415.525055 
	C678.526489,413.161835 670.203979,408.419250 662.469910,400.624146 
	C664.093689,409.407257 665.883911,417.180054 666.769226,425.110748 
	C667.733276,433.747375 666.753540,442.123901 663.819580,450.156433 
	C660.279175,459.848846 649.351868,465.262177 638.108643,464.039093 
	C625.548462,462.672791 614.802002,457.579742 605.379333,449.367523 
	C604.404602,448.518005 603.364502,447.743469 601.457336,446.214905 
	C601.988953,450.681549 602.323792,454.188934 602.833801,457.670593 
	C606.815613,484.851898 604.924866,511.221466 591.135498,535.648743 
	C582.863220,550.302673 570.572083,559.723816 553.217712,560.560242 
	C541.235107,561.137756 530.280762,556.969727 520.029297,551.084717 
	C492.922058,535.523376 474.307831,512.193787 460.348267,484.828156 
	C449.055573,462.690491 441.680969,439.210785 439.006409,414.486725 
	C436.741730,393.551788 437.874756,372.911469 447.896362,353.653015 
	C451.871124,346.014740 456.879181,339.202148 463.610565,333.816132 
	C475.171448,324.565796 491.825714,324.576050 506.053040,334.197266 
	C524.166077,346.446167 533.992493,364.168732 538.265076,385.207245 
	C540.416504,395.800751 539.717163,406.406250 537.270142,416.903442 
	C536.545532,420.011810 535.347168,422.919586 533.427185,425.505310 
	C529.154053,431.260040 523.675964,432.749847 517.690735,429.765808 
	C512.634705,427.245056 510.251556,420.769470 512.178040,414.645599 
	C512.526001,413.539612 512.995789,412.448029 513.568420,411.440216 
	C526.580505,388.538177 513.865173,356.765839 498.681274,343.523346 
	C486.544281,332.938202 473.471069,335.723938 466.466644,350.285278 
	C462.559174,358.408478 461.650574,367.266663 461.411133,376.068787 
	C460.557709,407.440460 468.800140,436.989685 480.251312,465.795441 
	C487.157806,483.168976 495.209442,499.978577 506.632202,515.375854 
M596.858459,330.535736 
	C595.117126,335.263947 594.041016,340.144653 594.345093,345.184174 
	C596.077637,373.902008 603.522888,401.222870 615.568359,427.214783 
	C620.065002,436.917664 626.484131,445.556885 636.752197,450.345306 
	C648.165771,455.667938 654.561340,452.320312 656.549072,439.896790 
	C656.627747,439.405609 656.635803,438.902252 656.662781,438.403809 
	C657.314636,426.348541 656.096436,414.497101 652.910400,402.839813 
	C646.793030,380.457306 637.785706,359.171112 628.695435,337.890289 
	C625.852661,331.235352 621.071533,327.135986 614.911621,324.242340 
	C607.241455,320.639252 601.690613,322.488342 596.858459,330.535736 
M882.294678,158.442245 
	C883.716736,167.594482 889.276550,173.721756 896.985046,178.119797 
	C906.610046,183.611282 918.447021,182.860092 926.624146,176.455826 
	C934.558533,170.241776 937.989624,158.697128 935.084412,147.989655 
	C932.219788,137.431885 923.506348,129.587265 912.871704,128.331329 
	C905.240051,127.430046 897.564148,128.130829 889.907104,128.186798 
	C887.427063,128.204926 886.162720,129.254822 886.350769,131.811386 
	C886.653381,135.923813 885.100220,139.656067 883.965820,143.475128 
	C882.591797,148.101364 881.063293,152.710373 882.294678,158.442245 
M789.663574,201.905945 
	C793.143250,211.645218 796.412964,221.481796 802.184509,230.428543 
	C805.017944,228.216904 806.317566,225.664108 807.559875,223.174194 
	C816.130615,205.995697 817.568970,187.860580 814.173096,169.247498 
	C812.291077,158.931671 809.940247,148.673859 803.153198,140.172180 
	C800.517578,136.870743 797.271912,134.671021 792.810974,135.528793 
	C788.022766,136.449493 784.649109,139.167953 783.274475,143.970200 
	C782.176331,147.806595 781.395203,151.690399 781.286926,155.727264 
	C780.865601,171.437820 785.386597,186.243530 789.663574,201.905945 
z"/>
<path fill="#b0a15d" opacity="1.000000" stroke="none" 
	d="
M271.220764,786.668701 
	C265.779633,762.160278 258.168854,738.743958 250.278061,715.397278 
	C246.389206,703.891235 240.727005,693.016418 238.136307,681.058716 
	C237.022385,675.917297 238.036987,671.418396 242.380096,668.099426 
	C246.667740,664.822815 251.371719,665.031860 256.131653,666.862671 
	C259.965454,668.337280 261.282654,671.775513 262.545502,675.294678 
	C269.404114,694.407776 275.952087,713.643311 283.316650,732.560486 
	C289.839630,749.315857 297.223511,765.742004 306.168213,781.399048 
	C306.910706,782.698792 307.704010,783.985291 308.613403,785.170837 
	C311.314728,788.692505 313.791626,788.414734 315.460083,784.221558 
	C317.603973,778.833557 317.159393,773.058044 317.272614,767.432251 
	C317.345612,763.805481 316.329437,760.170288 316.164795,756.522522 
	C315.793823,748.302734 312.728821,741.562744 307.801208,734.785767 
	C298.162323,721.529480 297.604553,706.323059 301.778625,690.822815 
	C302.118439,689.560974 302.792725,688.360229 303.471405,687.226868 
	C304.144867,686.102173 305.020386,685.098572 305.758240,684.107727 
	C305.469543,682.406982 304.061096,681.969177 303.004791,681.274658 
	C285.528778,669.783447 277.751556,646.575867 282.779724,626.193420 
	C284.831940,617.874512 289.434723,610.993713 296.369171,605.795227 
	C312.215912,593.915588 333.893799,603.218140 336.297363,622.948486 
	C337.131836,629.798584 335.810760,636.204407 332.135101,642.092102 
	C329.923004,645.635437 326.878906,647.626343 322.579895,647.181458 
	C319.505310,646.863342 317.223206,645.227722 316.073944,642.391724 
	C314.912781,639.526550 315.562408,636.976685 317.706177,634.588196 
	C324.844299,626.635010 324.919281,620.535095 318.141541,615.143250 
	C310.905151,609.386597 301.339600,610.870300 295.845459,618.601562 
	C287.221466,630.737122 289.560486,650.946106 300.709198,660.701965 
	C307.883270,666.979797 316.771057,667.210510 324.906921,665.193298 
	C359.434692,656.632324 383.866943,685.908020 384.901886,713.647705 
	C385.967865,742.219055 357.787292,762.487610 330.581207,752.827515 
	C329.507568,752.446289 328.418549,752.108459 327.320801,751.745178 
	C325.549500,753.582825 326.409698,755.671814 326.360901,757.552063 
	C326.132385,766.362000 327.118958,775.220337 325.301056,783.963623 
	C324.549591,787.577637 323.328094,791.025574 321.124603,794.036255 
	C317.199585,799.399048 311.753632,801.277954 305.333527,799.479980 
	C295.280212,796.664795 288.563171,789.624634 282.763062,781.481140 
	C281.138824,779.200745 279.722198,776.772522 277.408203,774.617310 
	C278.558472,781.494446 279.845306,788.352234 280.826355,795.253418 
	C282.228638,805.118164 284.281403,815.058228 282.133606,824.990479 
	C280.097382,834.406799 276.198578,842.742676 265.686737,845.665527 
	C261.045563,846.956055 256.731293,845.781006 252.573303,844.033020 
	C243.411377,840.181580 237.065186,833.379761 232.619980,824.579956 
	C218.264221,796.160828 208.380005,766.206726 201.692108,735.141418 
	C200.572006,729.938599 199.303772,724.763794 198.332047,719.533691 
	C196.945282,712.069763 201.251480,705.549377 208.313065,704.096313 
	C214.293671,702.865662 220.731750,707.108948 222.300415,714.044739 
	C227.952072,739.033569 233.783966,763.970459 241.253632,788.493225 
	C245.190216,801.417053 249.691467,814.124756 256.234589,826.002197 
	C258.316437,829.781311 260.532623,834.796082 265.338684,834.052429 
	C270.030396,833.326416 270.922455,828.017944 271.919128,823.748413 
	C274.783905,811.476135 273.388245,799.274414 271.220764,786.668701 
M333.648071,736.881958 
	C339.344666,740.661072 345.564575,743.055664 352.434631,742.189697 
	C365.656342,740.523010 374.318329,731.737122 375.616211,719.234985 
	C376.985138,706.049072 369.277039,693.664734 356.658875,689.810913 
	C346.636108,686.749756 336.331787,688.626709 325.773621,688.546631 
	C326.883362,695.096680 324.543945,700.351807 323.001984,705.723633 
	C319.330780,718.513123 322.426697,728.212891 333.648071,736.881958 
z"/>
<path fill="#b0a15d" opacity="1.000000" stroke="none" 
	d="
M106.804237,839.115601 
	C109.788078,844.936768 114.123398,848.981140 119.068657,852.522156 
	C123.462769,855.668457 126.780502,859.687683 126.017937,865.473267 
	C125.022232,873.027710 118.009354,877.000610 110.276581,874.743530 
	C94.866501,870.245544 81.521530,852.740723 80.686356,836.127136 
	C80.089294,824.250061 82.138702,812.920044 87.252159,802.174927 
	C97.555794,780.523499 108.261909,759.026855 115.247849,735.993530 
	C119.065720,723.405701 122.494896,710.695312 119.925522,697.244507 
	C119.306808,694.005432 119.692032,690.601746 120.397812,687.306702 
	C121.850929,680.522644 126.397438,677.056763 133.312088,677.520874 
	C140.276352,677.988281 144.101532,681.889771 144.313080,689.177368 
	C144.897049,709.294067 150.704620,728.147827 157.894669,746.698975 
	C167.235016,770.798340 178.911697,793.834412 189.790359,817.236816 
	C201.172913,841.723083 211.578033,866.599792 216.727951,893.286194 
	C220.915619,914.986389 221.298248,936.689758 214.063690,957.852844 
	C208.644196,973.706299 199.484009,987.248535 184.617645,995.687195 
	C156.079819,1011.886292 120.959457,997.404419 109.803696,965.247009 
	C105.324478,952.335327 105.729759,939.429626 109.861320,926.536011 
	C111.232246,922.257507 113.685852,918.782349 117.673164,916.549072 
	C121.726379,914.278931 125.981346,913.502869 129.875412,916.518799 
	C133.767090,919.532654 135.753265,923.500366 134.786957,928.761353 
	C133.533188,935.587402 131.939102,942.314941 133.084549,949.485107 
	C135.321564,963.488342 142.573944,973.328064 156.108047,977.521606 
	C169.455811,981.657349 181.498520,978.170410 191.616898,968.654114 
	C202.385330,958.526306 207.846054,945.745850 209.735413,931.221436 
	C212.686966,908.531494 205.609299,887.774231 197.404541,867.298462 
	C190.267242,849.486511 180.881744,832.777405 171.468719,816.083679 
	C155.704239,788.125793 137.772736,761.289795 127.106888,730.554382 
	C125.406364,731.056030 125.530373,732.392883 125.246117,733.360718 
	C119.010956,754.590881 112.610786,775.775696 106.686241,797.092651 
	C103.689491,807.875244 102.275192,818.927368 104.163170,830.198120 
	C104.665276,833.195557 105.389145,836.041260 106.804237,839.115601 
z"/>
<path fill="#b0a15d" opacity="1.000000" stroke="none" 
	d="
M364.993835,555.147034 
	C376.360168,590.574341 388.883484,625.151184 403.362701,659.002014 
	C406.011963,665.195740 409.843719,670.629395 414.785126,675.242065 
	C420.274567,680.366394 424.437256,679.719421 427.516998,672.732178 
	C431.062653,664.688110 431.965485,656.179382 431.408844,647.348816 
	C430.048798,625.772644 424.322510,605.077026 419.310333,584.225403 
	C418.921478,582.607788 418.516327,580.988098 418.251648,579.347900 
	C417.759888,576.300232 418.860718,574.106567 421.941650,573.199646 
	C425.270172,572.219971 427.022491,574.054810 427.922180,576.899231 
	C430.834656,586.107300 433.031830,595.502991 434.792908,604.989319 
	C438.221008,623.454834 442.426025,641.862732 441.251862,660.834290 
	C440.697052,669.798706 438.581604,678.330078 431.189819,684.487671 
	C424.473114,690.082764 417.117432,690.703125 409.362274,686.722900 
	C394.057159,678.867798 384.827240,665.888062 377.477875,650.824036 
	C363.118805,621.392273 352.672668,590.474854 341.783447,559.709534 
	C340.950714,557.356812 340.026428,555.035828 339.108063,552.714539 
	C338.870392,552.113770 338.494110,551.567871 337.794769,550.290283 
	C334.757141,552.909485 331.961975,555.395325 329.083435,557.780640 
	C326.138275,560.221130 323.190155,562.671997 320.093018,564.910339 
	C317.975891,566.440430 315.670441,566.331848 313.729767,564.404114 
	C311.600220,562.288818 311.830322,559.919617 313.326630,557.584961 
	C313.855286,556.760193 314.602112,556.053894 315.333252,555.385315 
	C316.315521,554.487122 317.373535,553.671021 318.408478,552.831360 
	C329.046997,544.200195 336.522308,534.835449 327.850647,520.360291 
	C325.795074,516.928955 325.350372,512.463501 324.482422,508.405731 
	C323.074677,501.824463 326.288910,496.550598 332.662720,494.506500 
	C338.283569,492.703888 344.525848,495.541077 347.184174,501.145874 
	C347.880188,502.613434 348.459717,504.136230 349.470978,506.528259 
	C354.848175,495.629883 358.579346,485.063873 361.712433,474.261444 
	C364.081116,466.094604 365.046112,457.658752 366.560730,449.325378 
	C368.197601,440.319489 373.454590,435.819031 380.390320,437.100098 
	C387.988922,438.503632 392.294006,445.643860 390.924805,454.301941 
	C389.394104,463.981384 385.178223,472.713348 381.289490,481.523438 
	C374.565125,496.757690 367.935486,512.080505 357.668701,525.413879 
	C356.091583,527.462036 356.561829,529.383301 357.269623,531.512756 
	C359.841888,539.251770 362.338806,547.015869 364.993835,555.147034 
z"/>
</svg>